<svg width="1120" height="151" viewBox="0 0 1120 151" fill="none" xmlns="http://www.w3.org/2000/svg">
<path d="M220.685 44.9092C221.049 44.9092 221.389 44.8506 221.706 44.7333C222.022 44.616 222.298 44.4342 222.533 44.1879C222.779 43.9416 222.972 43.6249 223.113 43.2379C223.254 42.8508 223.324 42.3876 223.324 41.848V37.872C223.324 37.3325 223.254 36.8692 223.113 36.4821C222.972 36.0951 222.779 35.7784 222.533 35.5321C222.298 35.2858 222.022 35.104 221.706 34.9867C221.389 34.8694 221.049 34.8108 220.685 34.8108C220.322 34.8108 219.982 34.8694 219.665 34.9867C219.348 35.104 219.067 35.2858 218.821 35.5321C218.586 35.7784 218.398 36.0951 218.258 36.4821C218.117 36.8692 218.046 37.3325 218.046 37.872V41.848C218.046 42.3876 218.117 42.8508 218.258 43.2379C218.398 43.6249 218.586 43.9416 218.821 44.1879C219.067 44.4342 219.348 44.616 219.665 44.7333C219.982 44.8506 220.322 44.9092 220.685 44.9092ZM220.685 46.2111C219.864 46.2111 219.102 46.0704 218.398 45.7889C217.695 45.5074 217.085 45.1028 216.569 44.575C216.053 44.0354 215.648 43.3728 215.355 42.5869C215.061 41.7894 214.915 40.8804 214.915 39.86C214.915 38.8396 215.061 37.9365 215.355 37.1507C215.648 36.3531 216.053 35.6905 216.569 35.1627C217.085 34.6231 217.695 34.2126 218.398 33.9312C219.102 33.6497 219.864 33.5089 220.685 33.5089C221.506 33.5089 222.269 33.6497 222.972 33.9312C223.676 34.2126 224.286 34.6231 224.802 35.1627C225.318 35.6905 225.723 36.3531 226.016 37.1507C226.309 37.9365 226.456 38.8396 226.456 39.86C226.456 40.8804 226.309 41.7894 226.016 42.5869C225.723 43.3728 225.318 44.0354 224.802 44.575C224.286 45.1028 223.676 45.5074 222.972 45.7889C222.269 46.0704 221.506 46.2111 220.685 46.2111ZM228.047 34.8812H227.167V33.72H232.339V34.8812H230.932L232.533 40.0887L233.571 43.8536H233.676L234.785 40.0887L236.439 34.8812H235.031V33.72H238.814V34.8812H237.934L234.204 46H231.776L228.047 34.8812ZM239.822 44.8389H241.054V34.8812H239.822V33.72H249.622V36.9923H247.581V34.9867H243.904V38.9628H246.226V37.9072H247.528V41.2851H246.226V40.2295H243.904V44.7333H247.722V42.3758H249.762V46H239.822V44.8389ZM251.402 44.8389H252.634V34.8812H251.402V33.72H258.316C258.856 33.72 259.354 33.7787 259.812 33.896C260.269 34.0133 260.662 34.2009 260.99 34.4589C261.331 34.7052 261.594 35.0278 261.782 35.4266C261.97 35.8136 262.064 36.2828 262.064 36.834C262.064 37.2562 261.993 37.6433 261.852 37.9952C261.712 38.347 261.518 38.6578 261.272 38.9276C261.026 39.1856 260.738 39.4085 260.41 39.5961C260.081 39.7721 259.724 39.9011 259.337 39.9832L261.606 43.8009C261.841 44.1996 262.081 44.4753 262.327 44.6277C262.586 44.7685 262.902 44.8389 263.278 44.8389H263.365V46H261.694C261.284 46 260.926 45.9707 260.621 45.912C260.316 45.8417 260.046 45.7361 259.812 45.5954C259.577 45.4546 259.372 45.2787 259.196 45.0676C259.02 44.8565 258.856 44.5984 258.703 44.2935L256.803 40.5637H255.484V44.8389H256.715V46H251.402V44.8389ZM255.484 39.3674H257.243C258.498 39.3674 259.126 38.8103 259.126 37.6961V36.6581C259.126 35.5439 258.498 34.9867 257.243 34.9867H255.484V39.3674ZM267.953 44.8389H268.833L272.651 33.72H275.078L278.896 44.8389H279.776V46H274.621V44.8389H276.028L275.184 42.2527H271.173L270.328 44.8389H271.736V46H267.953V44.8389ZM271.525 41.0388H274.867L273.214 35.8664H273.143L271.525 41.0388ZM280.73 44.8389H281.961V34.8812H280.73V33.72H290.529V36.9923H288.488V34.9867H284.811V38.9628H287.134V37.9072H288.435V41.2851H287.134V40.2295H284.811V44.7333H288.629V42.3758H290.67V46H280.73V44.8389ZM292.31 44.8389H293.541V34.8812H292.31V33.72H299.224C299.763 33.72 300.262 33.7787 300.719 33.896C301.176 34.0133 301.569 34.2009 301.898 34.4589C302.238 34.7052 302.502 35.0278 302.689 35.4266C302.877 35.8136 302.971 36.2828 302.971 36.834C302.971 37.2562 302.901 37.6433 302.76 37.9952C302.619 38.347 302.426 38.6578 302.179 38.9276C301.933 39.1856 301.646 39.4085 301.317 39.5961C300.989 39.7721 300.631 39.9011 300.244 39.9832L302.513 43.8009C302.748 44.1996 302.988 44.4753 303.235 44.6277C303.493 44.7685 303.81 44.8389 304.185 44.8389H304.273V46H302.601C302.191 46 301.833 45.9707 301.528 45.912C301.223 45.8417 300.954 45.7361 300.719 45.5954C300.484 45.4546 300.279 45.2787 300.103 45.0676C299.927 44.8565 299.763 44.5984 299.611 44.2935L297.711 40.5637H296.391V44.8389H297.623V46H292.31V44.8389ZM296.391 39.3674H298.15C299.405 39.3674 300.033 38.8103 300.033 37.6961V36.6581C300.033 35.5439 299.405 34.9867 298.15 34.9867H296.391V39.3674ZM305.247 44.8389H306.478V34.8812H305.247V33.72H309.997L315.028 42.4638H315.134V34.8812H313.902V33.72H317.72V34.8812H316.506V46H313.938L307.956 35.7784H307.85V44.8389H309.082V46H305.247V44.8389ZM325.127 44.9092C325.491 44.9092 325.831 44.8506 326.147 44.7333C326.464 44.616 326.74 44.4342 326.974 44.1879C327.221 43.9416 327.414 43.6249 327.555 43.2379C327.696 42.8508 327.766 42.3876 327.766 41.848V37.872C327.766 37.3325 327.696 36.8692 327.555 36.4821C327.414 36.0951 327.221 35.7784 326.974 35.5321C326.74 35.2858 326.464 35.104 326.147 34.9867C325.831 34.8694 325.491 34.8108 325.127 34.8108C324.763 34.8108 324.423 34.8694 324.107 34.9867C323.79 35.104 323.508 35.2858 323.262 35.5321C323.028 35.7784 322.84 36.0951 322.699 36.4821C322.558 36.8692 322.488 37.3325 322.488 37.872V41.848C322.488 42.3876 322.558 42.8508 322.699 43.2379C322.84 43.6249 323.028 43.9416 323.262 44.1879C323.508 44.4342 323.79 44.616 324.107 44.7333C324.423 44.8506 324.763 44.9092 325.127 44.9092ZM325.127 46.2111C324.306 46.2111 323.544 46.0704 322.84 45.7889C322.136 45.5074 321.526 45.1028 321.01 44.575C320.494 44.0354 320.09 43.3728 319.796 42.5869C319.503 41.7894 319.357 40.8804 319.357 39.86C319.357 38.8396 319.503 37.9365 319.796 37.1507C320.09 36.3531 320.494 35.6905 321.01 35.1627C321.526 34.6231 322.136 34.2126 322.84 33.9312C323.544 33.6497 324.306 33.5089 325.127 33.5089C325.948 33.5089 326.71 33.6497 327.414 33.9312C328.118 34.2126 328.728 34.6231 329.244 35.1627C329.76 35.6905 330.165 36.3531 330.458 37.1507C330.751 37.9365 330.898 38.8396 330.898 39.86C330.898 40.8804 330.751 41.7894 330.458 42.5869C330.165 43.3728 329.76 44.0354 329.244 44.575C328.728 45.1028 328.118 45.5074 327.414 45.7889C326.71 46.0704 325.948 46.2111 325.127 46.2111ZM339.004 46.2111C338.054 46.2111 337.245 46.1173 336.576 45.9296C335.919 45.742 335.38 45.4488 334.957 45.05C334.547 44.6512 334.242 44.1469 334.043 43.537C333.855 42.9153 333.761 42.1706 333.761 41.3026V34.8812H332.53V33.72H337.843V34.8812H336.611V41.3378C336.611 41.936 336.652 42.4521 336.734 42.886C336.828 43.32 336.975 43.6836 337.174 43.9768C337.385 44.27 337.661 44.487 338.001 44.6277C338.353 44.7685 338.787 44.8389 339.303 44.8389C340.335 44.8389 341.056 44.5632 341.467 44.012C341.889 43.449 342.1 42.5752 342.1 41.3906V34.8812H340.869V33.72H344.704V34.8812H343.472V41.3554C343.472 42.9388 343.121 44.1469 342.417 44.9796C341.713 45.8006 340.576 46.2111 339.004 46.2111ZM348.479 44.8389H350.15V34.9867H347.863V36.9923H345.822V33.72H357.328V36.9923H355.287V34.9867H353V44.8389H354.671V46H348.479V44.8389Z" fill="white"/>
<path d="M373.685 44.9092C374.049 44.9092 374.389 44.8506 374.706 44.7333C375.022 44.616 375.298 44.4342 375.533 44.1879C375.779 43.9416 375.972 43.6249 376.113 43.2379C376.254 42.8508 376.324 42.3876 376.324 41.848V37.872C376.324 37.3325 376.254 36.8692 376.113 36.4821C375.972 36.0951 375.779 35.7784 375.533 35.5321C375.298 35.2858 375.022 35.104 374.706 34.9867C374.389 34.8694 374.049 34.8108 373.685 34.8108C373.322 34.8108 372.982 34.8694 372.665 34.9867C372.348 35.104 372.067 35.2858 371.821 35.5321C371.586 35.7784 371.398 36.0951 371.258 36.4821C371.117 36.8692 371.046 37.3325 371.046 37.872V41.848C371.046 42.3876 371.117 42.8508 371.258 43.2379C371.398 43.6249 371.586 43.9416 371.821 44.1879C372.067 44.4342 372.348 44.616 372.665 44.7333C372.982 44.8506 373.322 44.9092 373.685 44.9092ZM373.685 46.2111C372.864 46.2111 372.102 46.0704 371.398 45.7889C370.695 45.5074 370.085 45.1028 369.569 44.575C369.053 44.0354 368.648 43.3728 368.355 42.5869C368.061 41.7894 367.915 40.8804 367.915 39.86C367.915 38.8396 368.061 37.9365 368.355 37.1507C368.648 36.3531 369.053 35.6905 369.569 35.1627C370.085 34.6231 370.695 34.2126 371.398 33.9312C372.102 33.6497 372.864 33.5089 373.685 33.5089C374.506 33.5089 375.269 33.6497 375.972 33.9312C376.676 34.2126 377.286 34.6231 377.802 35.1627C378.318 35.6905 378.723 36.3531 379.016 37.1507C379.309 37.9365 379.456 38.8396 379.456 39.86C379.456 40.8804 379.309 41.7894 379.016 42.5869C378.723 43.3728 378.318 44.0354 377.802 44.575C377.286 45.1028 376.676 45.5074 375.972 45.7889C375.269 46.0704 374.506 46.2111 373.685 46.2111ZM381.047 34.8812H380.167V33.72H385.339V34.8812H383.932L385.533 40.0887L386.571 43.8536H386.676L387.785 40.0887L389.439 34.8812H388.031V33.72H391.814V34.8812H390.934L387.204 46H384.776L381.047 34.8812ZM392.822 44.8389H394.054V34.8812H392.822V33.72H402.622V36.9923H400.581V34.9867H396.904V38.9628H399.226V37.9072H400.528V41.2851H399.226V40.2295H396.904V44.7333H400.722V42.3758H402.762V46H392.822V44.8389ZM404.402 44.8389H405.634V34.8812H404.402V33.72H411.316C411.856 33.72 412.354 33.7787 412.812 33.896C413.269 34.0133 413.662 34.2009 413.99 34.4589C414.331 34.7052 414.594 35.0278 414.782 35.4266C414.97 35.8136 415.064 36.2828 415.064 36.834C415.064 37.2562 414.993 37.6433 414.852 37.9952C414.712 38.347 414.518 38.6578 414.272 38.9276C414.026 39.1856 413.738 39.4085 413.41 39.5961C413.081 39.7721 412.724 39.9011 412.337 39.9832L414.606 43.8009C414.841 44.1996 415.081 44.4753 415.327 44.6277C415.586 44.7685 415.902 44.8389 416.278 44.8389H416.365V46H414.694C414.284 46 413.926 45.9707 413.621 45.912C413.316 45.8417 413.046 45.7361 412.812 45.5954C412.577 45.4546 412.372 45.2787 412.196 45.0676C412.02 44.8565 411.856 44.5984 411.703 44.2935L409.803 40.5637H408.484V44.8389H409.715V46H404.402V44.8389ZM408.484 39.3674H410.243C411.498 39.3674 412.126 38.8103 412.126 37.6961V36.6581C412.126 35.5439 411.498 34.9867 410.243 34.9867H408.484V39.3674ZM420.953 44.8389H421.833L425.651 33.72H428.078L431.896 44.8389H432.776V46H427.621V44.8389H429.028L428.184 42.2527H424.173L423.328 44.8389H424.736V46H420.953V44.8389ZM424.525 41.0388H427.867L426.214 35.8664H426.143L424.525 41.0388ZM433.73 44.8389H434.961V34.8812H433.73V33.72H443.529V36.9923H441.488V34.9867H437.811V38.9628H440.134V37.9072H441.435V41.2851H440.134V40.2295H437.811V44.7333H441.629V42.3758H443.67V46H433.73V44.8389ZM445.31 44.8389H446.541V34.8812H445.31V33.72H452.224C452.763 33.72 453.262 33.7787 453.719 33.896C454.176 34.0133 454.569 34.2009 454.898 34.4589C455.238 34.7052 455.502 35.0278 455.689 35.4266C455.877 35.8136 455.971 36.2828 455.971 36.834C455.971 37.2562 455.901 37.6433 455.76 37.9952C455.619 38.347 455.426 38.6578 455.179 38.9276C454.933 39.1856 454.646 39.4085 454.317 39.5961C453.989 39.7721 453.631 39.9011 453.244 39.9832L455.513 43.8009C455.748 44.1996 455.988 44.4753 456.235 44.6277C456.493 44.7685 456.81 44.8389 457.185 44.8389H457.273V46H455.601C455.191 46 454.833 45.9707 454.528 45.912C454.223 45.8417 453.954 45.7361 453.719 45.5954C453.484 45.4546 453.279 45.2787 453.103 45.0676C452.927 44.8565 452.763 44.5984 452.611 44.2935L450.711 40.5637H449.391V44.8389H450.623V46H445.31V44.8389ZM449.391 39.3674H451.15C452.405 39.3674 453.033 38.8103 453.033 37.6961V36.6581C453.033 35.5439 452.405 34.9867 451.15 34.9867H449.391V39.3674ZM458.247 44.8389H459.478V34.8812H458.247V33.72H462.997L468.028 42.4638H468.134V34.8812H466.902V33.72H470.72V34.8812H469.506V46H466.938L460.956 35.7784H460.85V44.8389H462.082V46H458.247V44.8389ZM478.127 44.9092C478.491 44.9092 478.831 44.8506 479.147 44.7333C479.464 44.616 479.74 44.4342 479.974 44.1879C480.221 43.9416 480.414 43.6249 480.555 43.2379C480.696 42.8508 480.766 42.3876 480.766 41.848V37.872C480.766 37.3325 480.696 36.8692 480.555 36.4821C480.414 36.0951 480.221 35.7784 479.974 35.5321C479.74 35.2858 479.464 35.104 479.147 34.9867C478.831 34.8694 478.491 34.8108 478.127 34.8108C477.763 34.8108 477.423 34.8694 477.107 34.9867C476.79 35.104 476.508 35.2858 476.262 35.5321C476.028 35.7784 475.84 36.0951 475.699 36.4821C475.558 36.8692 475.488 37.3325 475.488 37.872V41.848C475.488 42.3876 475.558 42.8508 475.699 43.2379C475.84 43.6249 476.028 43.9416 476.262 44.1879C476.508 44.4342 476.79 44.616 477.107 44.7333C477.423 44.8506 477.763 44.9092 478.127 44.9092ZM478.127 46.2111C477.306 46.2111 476.544 46.0704 475.84 45.7889C475.136 45.5074 474.526 45.1028 474.01 44.575C473.494 44.0354 473.09 43.3728 472.796 42.5869C472.503 41.7894 472.357 40.8804 472.357 39.86C472.357 38.8396 472.503 37.9365 472.796 37.1507C473.09 36.3531 473.494 35.6905 474.01 35.1627C474.526 34.6231 475.136 34.2126 475.84 33.9312C476.544 33.6497 477.306 33.5089 478.127 33.5089C478.948 33.5089 479.71 33.6497 480.414 33.9312C481.118 34.2126 481.728 34.6231 482.244 35.1627C482.76 35.6905 483.165 36.3531 483.458 37.1507C483.751 37.9365 483.898 38.8396 483.898 39.86C483.898 40.8804 483.751 41.7894 483.458 42.5869C483.165 43.3728 482.76 44.0354 482.244 44.575C481.728 45.1028 481.118 45.5074 480.414 45.7889C479.71 46.0704 478.948 46.2111 478.127 46.2111ZM492.004 46.2111C491.054 46.2111 490.245 46.1173 489.576 45.9296C488.919 45.742 488.38 45.4488 487.957 45.05C487.547 44.6512 487.242 44.1469 487.043 43.537C486.855 42.9153 486.761 42.1706 486.761 41.3026V34.8812H485.53V33.72H490.843V34.8812H489.611V41.3378C489.611 41.936 489.652 42.4521 489.734 42.886C489.828 43.32 489.975 43.6836 490.174 43.9768C490.385 44.27 490.661 44.487 491.001 44.6277C491.353 44.7685 491.787 44.8389 492.303 44.8389C493.335 44.8389 494.056 44.5632 494.467 44.012C494.889 43.449 495.1 42.5752 495.1 41.3906V34.8812H493.869V33.72H497.704V34.8812H496.472V41.3554C496.472 42.9388 496.121 44.1469 495.417 44.9796C494.713 45.8006 493.576 46.2111 492.004 46.2111ZM501.479 44.8389H503.15V34.9867H500.863V36.9923H498.822V33.72H510.328V36.9923H508.287V34.9867H506V44.8389H507.671V46H501.479V44.8389Z" fill="white"/>
<path d="M526.685 44.9092C527.049 44.9092 527.389 44.8506 527.706 44.7333C528.022 44.616 528.298 44.4342 528.533 44.1879C528.779 43.9416 528.972 43.6249 529.113 43.2379C529.254 42.8508 529.324 42.3876 529.324 41.848V37.872C529.324 37.3325 529.254 36.8692 529.113 36.4821C528.972 36.0951 528.779 35.7784 528.533 35.5321C528.298 35.2858 528.022 35.104 527.706 34.9867C527.389 34.8694 527.049 34.8108 526.685 34.8108C526.322 34.8108 525.982 34.8694 525.665 34.9867C525.348 35.104 525.067 35.2858 524.821 35.5321C524.586 35.7784 524.398 36.0951 524.258 36.4821C524.117 36.8692 524.046 37.3325 524.046 37.872V41.848C524.046 42.3876 524.117 42.8508 524.258 43.2379C524.398 43.6249 524.586 43.9416 524.821 44.1879C525.067 44.4342 525.348 44.616 525.665 44.7333C525.982 44.8506 526.322 44.9092 526.685 44.9092ZM526.685 46.2111C525.864 46.2111 525.102 46.0704 524.398 45.7889C523.695 45.5074 523.085 45.1028 522.569 44.575C522.053 44.0354 521.648 43.3728 521.355 42.5869C521.061 41.7894 520.915 40.8804 520.915 39.86C520.915 38.8396 521.061 37.9365 521.355 37.1507C521.648 36.3531 522.053 35.6905 522.569 35.1627C523.085 34.6231 523.695 34.2126 524.398 33.9312C525.102 33.6497 525.864 33.5089 526.685 33.5089C527.506 33.5089 528.269 33.6497 528.972 33.9312C529.676 34.2126 530.286 34.6231 530.802 35.1627C531.318 35.6905 531.723 36.3531 532.016 37.1507C532.309 37.9365 532.456 38.8396 532.456 39.86C532.456 40.8804 532.309 41.7894 532.016 42.5869C531.723 43.3728 531.318 44.0354 530.802 44.575C530.286 45.1028 529.676 45.5074 528.972 45.7889C528.269 46.0704 527.506 46.2111 526.685 46.2111ZM534.047 34.8812H533.167V33.72H538.339V34.8812H536.932L538.533 40.0887L539.571 43.8536H539.676L540.785 40.0887L542.439 34.8812H541.031V33.72H544.814V34.8812H543.934L540.204 46H537.776L534.047 34.8812ZM545.822 44.8389H547.054V34.8812H545.822V33.72H555.622V36.9923H553.581V34.9867H549.904V38.9628H552.226V37.9072H553.528V41.2851H552.226V40.2295H549.904V44.7333H553.722V42.3758H555.762V46H545.822V44.8389ZM557.402 44.8389H558.634V34.8812H557.402V33.72H564.316C564.856 33.72 565.354 33.7787 565.812 33.896C566.269 34.0133 566.662 34.2009 566.99 34.4589C567.331 34.7052 567.594 35.0278 567.782 35.4266C567.97 35.8136 568.064 36.2828 568.064 36.834C568.064 37.2562 567.993 37.6433 567.852 37.9952C567.712 38.347 567.518 38.6578 567.272 38.9276C567.026 39.1856 566.738 39.4085 566.41 39.5961C566.081 39.7721 565.724 39.9011 565.337 39.9832L567.606 43.8009C567.841 44.1996 568.081 44.4753 568.327 44.6277C568.586 44.7685 568.902 44.8389 569.278 44.8389H569.365V46H567.694C567.284 46 566.926 45.9707 566.621 45.912C566.316 45.8417 566.046 45.7361 565.812 45.5954C565.577 45.4546 565.372 45.2787 565.196 45.0676C565.02 44.8565 564.856 44.5984 564.703 44.2935L562.803 40.5637H561.484V44.8389H562.715V46H557.402V44.8389ZM561.484 39.3674H563.243C564.498 39.3674 565.126 38.8103 565.126 37.6961V36.6581C565.126 35.5439 564.498 34.9867 563.243 34.9867H561.484V39.3674ZM573.953 44.8389H574.833L578.651 33.72H581.078L584.896 44.8389H585.776V46H580.621V44.8389H582.028L581.184 42.2527H577.173L576.328 44.8389H577.736V46H573.953V44.8389ZM577.525 41.0388H580.867L579.214 35.8664H579.143L577.525 41.0388ZM586.73 44.8389H587.961V34.8812H586.73V33.72H596.529V36.9923H594.488V34.9867H590.811V38.9628H593.134V37.9072H594.435V41.2851H593.134V40.2295H590.811V44.7333H594.629V42.3758H596.67V46H586.73V44.8389ZM598.31 44.8389H599.541V34.8812H598.31V33.72H605.224C605.763 33.72 606.262 33.7787 606.719 33.896C607.176 34.0133 607.569 34.2009 607.898 34.4589C608.238 34.7052 608.502 35.0278 608.689 35.4266C608.877 35.8136 608.971 36.2828 608.971 36.834C608.971 37.2562 608.901 37.6433 608.76 37.9952C608.619 38.347 608.426 38.6578 608.179 38.9276C607.933 39.1856 607.646 39.4085 607.317 39.5961C606.989 39.7721 606.631 39.9011 606.244 39.9832L608.513 43.8009C608.748 44.1996 608.988 44.4753 609.235 44.6277C609.493 44.7685 609.81 44.8389 610.185 44.8389H610.273V46H608.601C608.191 46 607.833 45.9707 607.528 45.912C607.223 45.8417 606.954 45.7361 606.719 45.5954C606.484 45.4546 606.279 45.2787 606.103 45.0676C605.927 44.8565 605.763 44.5984 605.611 44.2935L603.711 40.5637H602.391V44.8389H603.623V46H598.31V44.8389ZM602.391 39.3674H604.15C605.405 39.3674 606.033 38.8103 606.033 37.6961V36.6581C606.033 35.5439 605.405 34.9867 604.15 34.9867H602.391V39.3674ZM611.247 44.8389H612.478V34.8812H611.247V33.72H615.997L621.028 42.4638H621.134V34.8812H619.902V33.72H623.72V34.8812H622.506V46H619.938L613.956 35.7784H613.85V44.8389H615.082V46H611.247V44.8389ZM631.127 44.9092C631.491 44.9092 631.831 44.8506 632.147 44.7333C632.464 44.616 632.74 44.4342 632.974 44.1879C633.221 43.9416 633.414 43.6249 633.555 43.2379C633.696 42.8508 633.766 42.3876 633.766 41.848V37.872C633.766 37.3325 633.696 36.8692 633.555 36.4821C633.414 36.0951 633.221 35.7784 632.974 35.5321C632.74 35.2858 632.464 35.104 632.147 34.9867C631.831 34.8694 631.491 34.8108 631.127 34.8108C630.763 34.8108 630.423 34.8694 630.107 34.9867C629.79 35.104 629.508 35.2858 629.262 35.5321C629.028 35.7784 628.84 36.0951 628.699 36.4821C628.558 36.8692 628.488 37.3325 628.488 37.872V41.848C628.488 42.3876 628.558 42.8508 628.699 43.2379C628.84 43.6249 629.028 43.9416 629.262 44.1879C629.508 44.4342 629.79 44.616 630.107 44.7333C630.423 44.8506 630.763 44.9092 631.127 44.9092ZM631.127 46.2111C630.306 46.2111 629.544 46.0704 628.84 45.7889C628.136 45.5074 627.526 45.1028 627.01 44.575C626.494 44.0354 626.09 43.3728 625.796 42.5869C625.503 41.7894 625.357 40.8804 625.357 39.86C625.357 38.8396 625.503 37.9365 625.796 37.1507C626.09 36.3531 626.494 35.6905 627.01 35.1627C627.526 34.6231 628.136 34.2126 628.84 33.9312C629.544 33.6497 630.306 33.5089 631.127 33.5089C631.948 33.5089 632.71 33.6497 633.414 33.9312C634.118 34.2126 634.728 34.6231 635.244 35.1627C635.76 35.6905 636.165 36.3531 636.458 37.1507C636.751 37.9365 636.898 38.8396 636.898 39.86C636.898 40.8804 636.751 41.7894 636.458 42.5869C636.165 43.3728 635.76 44.0354 635.244 44.575C634.728 45.1028 634.118 45.5074 633.414 45.7889C632.71 46.0704 631.948 46.2111 631.127 46.2111ZM645.004 46.2111C644.054 46.2111 643.245 46.1173 642.576 45.9296C641.919 45.742 641.38 45.4488 640.957 45.05C640.547 44.6512 640.242 44.1469 640.043 43.537C639.855 42.9153 639.761 42.1706 639.761 41.3026V34.8812H638.53V33.72H643.843V34.8812H642.611V41.3378C642.611 41.936 642.652 42.4521 642.734 42.886C642.828 43.32 642.975 43.6836 643.174 43.9768C643.385 44.27 643.661 44.487 644.001 44.6277C644.353 44.7685 644.787 44.8389 645.303 44.8389C646.335 44.8389 647.056 44.5632 647.467 44.012C647.889 43.449 648.1 42.5752 648.1 41.3906V34.8812H646.869V33.72H650.704V34.8812H649.472V41.3554C649.472 42.9388 649.121 44.1469 648.417 44.9796C647.713 45.8006 646.576 46.2111 645.004 46.2111ZM654.479 44.8389H656.15V34.9867H653.863V36.9923H651.822V33.72H663.328V36.9923H661.287V34.9867H659V44.8389H660.671V46H654.479V44.8389Z" fill="white"/>
<path d="M678.685 44.9092C679.049 44.9092 679.389 44.8506 679.706 44.7333C680.022 44.616 680.298 44.4342 680.533 44.1879C680.779 43.9416 680.972 43.6249 681.113 43.2379C681.254 42.8508 681.324 42.3876 681.324 41.848V37.872C681.324 37.3325 681.254 36.8692 681.113 36.4821C680.972 36.0951 680.779 35.7784 680.533 35.5321C680.298 35.2858 680.022 35.104 679.706 34.9867C679.389 34.8694 679.049 34.8108 678.685 34.8108C678.322 34.8108 677.982 34.8694 677.665 34.9867C677.348 35.104 677.067 35.2858 676.821 35.5321C676.586 35.7784 676.398 36.0951 676.258 36.4821C676.117 36.8692 676.046 37.3325 676.046 37.872V41.848C676.046 42.3876 676.117 42.8508 676.258 43.2379C676.398 43.6249 676.586 43.9416 676.821 44.1879C677.067 44.4342 677.348 44.616 677.665 44.7333C677.982 44.8506 678.322 44.9092 678.685 44.9092ZM678.685 46.2111C677.864 46.2111 677.102 46.0704 676.398 45.7889C675.695 45.5074 675.085 45.1028 674.569 44.575C674.053 44.0354 673.648 43.3728 673.355 42.5869C673.061 41.7894 672.915 40.8804 672.915 39.86C672.915 38.8396 673.061 37.9365 673.355 37.1507C673.648 36.3531 674.053 35.6905 674.569 35.1627C675.085 34.6231 675.695 34.2126 676.398 33.9312C677.102 33.6497 677.864 33.5089 678.685 33.5089C679.506 33.5089 680.269 33.6497 680.972 33.9312C681.676 34.2126 682.286 34.6231 682.802 35.1627C683.318 35.6905 683.723 36.3531 684.016 37.1507C684.309 37.9365 684.456 38.8396 684.456 39.86C684.456 40.8804 684.309 41.7894 684.016 42.5869C683.723 43.3728 683.318 44.0354 682.802 44.575C682.286 45.1028 681.676 45.5074 680.972 45.7889C680.269 46.0704 679.506 46.2111 678.685 46.2111ZM686.047 34.8812H685.167V33.72H690.339V34.8812H688.932L690.533 40.0887L691.571 43.8536H691.676L692.785 40.0887L694.439 34.8812H693.031V33.72H696.814V34.8812H695.934L692.204 46H689.776L686.047 34.8812ZM697.822 44.8389H699.054V34.8812H697.822V33.72H707.622V36.9923H705.581V34.9867H701.904V38.9628H704.226V37.9072H705.528V41.2851H704.226V40.2295H701.904V44.7333H705.722V42.3758H707.762V46H697.822V44.8389ZM709.402 44.8389H710.634V34.8812H709.402V33.72H716.316C716.856 33.72 717.354 33.7787 717.812 33.896C718.269 34.0133 718.662 34.2009 718.99 34.4589C719.331 34.7052 719.594 35.0278 719.782 35.4266C719.97 35.8136 720.064 36.2828 720.064 36.834C720.064 37.2562 719.993 37.6433 719.852 37.9952C719.712 38.347 719.518 38.6578 719.272 38.9276C719.026 39.1856 718.738 39.4085 718.41 39.5961C718.081 39.7721 717.724 39.9011 717.337 39.9832L719.606 43.8009C719.841 44.1996 720.081 44.4753 720.327 44.6277C720.586 44.7685 720.902 44.8389 721.278 44.8389H721.365V46H719.694C719.284 46 718.926 45.9707 718.621 45.912C718.316 45.8417 718.046 45.7361 717.812 45.5954C717.577 45.4546 717.372 45.2787 717.196 45.0676C717.02 44.8565 716.856 44.5984 716.703 44.2935L714.803 40.5637H713.484V44.8389H714.715V46H709.402V44.8389ZM713.484 39.3674H715.243C716.498 39.3674 717.126 38.8103 717.126 37.6961V36.6581C717.126 35.5439 716.498 34.9867 715.243 34.9867H713.484V39.3674ZM725.953 44.8389H726.833L730.651 33.72H733.078L736.896 44.8389H737.776V46H732.621V44.8389H734.028L733.184 42.2527H729.173L728.328 44.8389H729.736V46H725.953V44.8389ZM729.525 41.0388H732.867L731.214 35.8664H731.143L729.525 41.0388ZM738.73 44.8389H739.961V34.8812H738.73V33.72H748.529V36.9923H746.488V34.9867H742.811V38.9628H745.134V37.9072H746.435V41.2851H745.134V40.2295H742.811V44.7333H746.629V42.3758H748.67V46H738.73V44.8389ZM750.31 44.8389H751.541V34.8812H750.31V33.72H757.224C757.763 33.72 758.262 33.7787 758.719 33.896C759.176 34.0133 759.569 34.2009 759.898 34.4589C760.238 34.7052 760.502 35.0278 760.689 35.4266C760.877 35.8136 760.971 36.2828 760.971 36.834C760.971 37.2562 760.901 37.6433 760.76 37.9952C760.619 38.347 760.426 38.6578 760.179 38.9276C759.933 39.1856 759.646 39.4085 759.317 39.5961C758.989 39.7721 758.631 39.9011 758.244 39.9832L760.513 43.8009C760.748 44.1996 760.988 44.4753 761.235 44.6277C761.493 44.7685 761.81 44.8389 762.185 44.8389H762.273V46H760.601C760.191 46 759.833 45.9707 759.528 45.912C759.223 45.8417 758.954 45.7361 758.719 45.5954C758.484 45.4546 758.279 45.2787 758.103 45.0676C757.927 44.8565 757.763 44.5984 757.611 44.2935L755.711 40.5637H754.391V44.8389H755.623V46H750.31V44.8389ZM754.391 39.3674H756.15C757.405 39.3674 758.033 38.8103 758.033 37.6961V36.6581C758.033 35.5439 757.405 34.9867 756.15 34.9867H754.391V39.3674ZM763.247 44.8389H764.478V34.8812H763.247V33.72H767.997L773.028 42.4638H773.134V34.8812H771.902V33.72H775.72V34.8812H774.506V46H771.938L765.956 35.7784H765.85V44.8389H767.082V46H763.247V44.8389ZM783.127 44.9092C783.491 44.9092 783.831 44.8506 784.147 44.7333C784.464 44.616 784.74 44.4342 784.974 44.1879C785.221 43.9416 785.414 43.6249 785.555 43.2379C785.696 42.8508 785.766 42.3876 785.766 41.848V37.872C785.766 37.3325 785.696 36.8692 785.555 36.4821C785.414 36.0951 785.221 35.7784 784.974 35.5321C784.74 35.2858 784.464 35.104 784.147 34.9867C783.831 34.8694 783.491 34.8108 783.127 34.8108C782.763 34.8108 782.423 34.8694 782.107 34.9867C781.79 35.104 781.508 35.2858 781.262 35.5321C781.028 35.7784 780.84 36.0951 780.699 36.4821C780.558 36.8692 780.488 37.3325 780.488 37.872V41.848C780.488 42.3876 780.558 42.8508 780.699 43.2379C780.84 43.6249 781.028 43.9416 781.262 44.1879C781.508 44.4342 781.79 44.616 782.107 44.7333C782.423 44.8506 782.763 44.9092 783.127 44.9092ZM783.127 46.2111C782.306 46.2111 781.544 46.0704 780.84 45.7889C780.136 45.5074 779.526 45.1028 779.01 44.575C778.494 44.0354 778.09 43.3728 777.796 42.5869C777.503 41.7894 777.357 40.8804 777.357 39.86C777.357 38.8396 777.503 37.9365 777.796 37.1507C778.09 36.3531 778.494 35.6905 779.01 35.1627C779.526 34.6231 780.136 34.2126 780.84 33.9312C781.544 33.6497 782.306 33.5089 783.127 33.5089C783.948 33.5089 784.71 33.6497 785.414 33.9312C786.118 34.2126 786.728 34.6231 787.244 35.1627C787.76 35.6905 788.165 36.3531 788.458 37.1507C788.751 37.9365 788.898 38.8396 788.898 39.86C788.898 40.8804 788.751 41.7894 788.458 42.5869C788.165 43.3728 787.76 44.0354 787.244 44.575C786.728 45.1028 786.118 45.5074 785.414 45.7889C784.71 46.0704 783.948 46.2111 783.127 46.2111ZM797.004 46.2111C796.054 46.2111 795.245 46.1173 794.576 45.9296C793.919 45.742 793.38 45.4488 792.957 45.05C792.547 44.6512 792.242 44.1469 792.043 43.537C791.855 42.9153 791.761 42.1706 791.761 41.3026V34.8812H790.53V33.72H795.843V34.8812H794.611V41.3378C794.611 41.936 794.652 42.4521 794.734 42.886C794.828 43.32 794.975 43.6836 795.174 43.9768C795.385 44.27 795.661 44.487 796.001 44.6277C796.353 44.7685 796.787 44.8389 797.303 44.8389C798.335 44.8389 799.056 44.5632 799.467 44.012C799.889 43.449 800.1 42.5752 800.1 41.3906V34.8812H798.869V33.72H802.704V34.8812H801.472V41.3554C801.472 42.9388 801.121 44.1469 800.417 44.9796C799.713 45.8006 798.576 46.2111 797.004 46.2111ZM806.479 44.8389H808.15V34.9867H805.863V36.9923H803.822V33.72H815.328V36.9923H813.287V34.9867H811V44.8389H812.671V46H806.479V44.8389Z" fill="white"/>
<path d="M830.685 44.9092C831.049 44.9092 831.389 44.8506 831.706 44.7333C832.022 44.616 832.298 44.4342 832.533 44.1879C832.779 43.9416 832.972 43.6249 833.113 43.2379C833.254 42.8508 833.324 42.3876 833.324 41.848V37.872C833.324 37.3325 833.254 36.8692 833.113 36.4821C832.972 36.0951 832.779 35.7784 832.533 35.5321C832.298 35.2858 832.022 35.104 831.706 34.9867C831.389 34.8694 831.049 34.8108 830.685 34.8108C830.322 34.8108 829.982 34.8694 829.665 34.9867C829.348 35.104 829.067 35.2858 828.821 35.5321C828.586 35.7784 828.398 36.0951 828.258 36.4821C828.117 36.8692 828.046 37.3325 828.046 37.872V41.848C828.046 42.3876 828.117 42.8508 828.258 43.2379C828.398 43.6249 828.586 43.9416 828.821 44.1879C829.067 44.4342 829.348 44.616 829.665 44.7333C829.982 44.8506 830.322 44.9092 830.685 44.9092ZM830.685 46.2111C829.864 46.2111 829.102 46.0704 828.398 45.7889C827.695 45.5074 827.085 45.1028 826.569 44.575C826.053 44.0354 825.648 43.3728 825.355 42.5869C825.061 41.7894 824.915 40.8804 824.915 39.86C824.915 38.8396 825.061 37.9365 825.355 37.1507C825.648 36.3531 826.053 35.6905 826.569 35.1627C827.085 34.6231 827.695 34.2126 828.398 33.9312C829.102 33.6497 829.864 33.5089 830.685 33.5089C831.506 33.5089 832.269 33.6497 832.972 33.9312C833.676 34.2126 834.286 34.6231 834.802 35.1627C835.318 35.6905 835.723 36.3531 836.016 37.1507C836.309 37.9365 836.456 38.8396 836.456 39.86C836.456 40.8804 836.309 41.7894 836.016 42.5869C835.723 43.3728 835.318 44.0354 834.802 44.575C834.286 45.1028 833.676 45.5074 832.972 45.7889C832.269 46.0704 831.506 46.2111 830.685 46.2111ZM838.047 34.8812H837.167V33.72H842.339V34.8812H840.932L842.533 40.0887L843.571 43.8536H843.676L844.785 40.0887L846.439 34.8812H845.031V33.72H848.814V34.8812H847.934L844.204 46H841.776L838.047 34.8812ZM849.822 44.8389H851.054V34.8812H849.822V33.72H859.622V36.9923H857.581V34.9867H853.904V38.9628H856.226V37.9072H857.528V41.2851H856.226V40.2295H853.904V44.7333H857.722V42.3758H859.762V46H849.822V44.8389ZM861.402 44.8389H862.634V34.8812H861.402V33.72H868.316C868.856 33.72 869.354 33.7787 869.812 33.896C870.269 34.0133 870.662 34.2009 870.99 34.4589C871.331 34.7052 871.594 35.0278 871.782 35.4266C871.97 35.8136 872.064 36.2828 872.064 36.834C872.064 37.2562 871.993 37.6433 871.852 37.9952C871.712 38.347 871.518 38.6578 871.272 38.9276C871.026 39.1856 870.738 39.4085 870.41 39.5961C870.081 39.7721 869.724 39.9011 869.337 39.9832L871.606 43.8009C871.841 44.1996 872.081 44.4753 872.327 44.6277C872.586 44.7685 872.902 44.8389 873.278 44.8389H873.365V46H871.694C871.284 46 870.926 45.9707 870.621 45.912C870.316 45.8417 870.046 45.7361 869.812 45.5954C869.577 45.4546 869.372 45.2787 869.196 45.0676C869.02 44.8565 868.856 44.5984 868.703 44.2935L866.803 40.5637H865.484V44.8389H866.715V46H861.402V44.8389ZM865.484 39.3674H867.243C868.498 39.3674 869.126 38.8103 869.126 37.6961V36.6581C869.126 35.5439 868.498 34.9867 867.243 34.9867H865.484V39.3674ZM877.953 44.8389H878.833L882.651 33.72H885.078L888.896 44.8389H889.776V46H884.621V44.8389H886.028L885.184 42.2527H881.173L880.328 44.8389H881.736V46H877.953V44.8389ZM881.525 41.0388H884.867L883.214 35.8664H883.143L881.525 41.0388ZM890.73 44.8389H891.961V34.8812H890.73V33.72H900.529V36.9923H898.488V34.9867H894.811V38.9628H897.134V37.9072H898.435V41.2851H897.134V40.2295H894.811V44.7333H898.629V42.3758H900.67V46H890.73V44.8389ZM902.31 44.8389H903.541V34.8812H902.31V33.72H909.224C909.763 33.72 910.262 33.7787 910.719 33.896C911.176 34.0133 911.569 34.2009 911.898 34.4589C912.238 34.7052 912.502 35.0278 912.689 35.4266C912.877 35.8136 912.971 36.2828 912.971 36.834C912.971 37.2562 912.901 37.6433 912.76 37.9952C912.619 38.347 912.426 38.6578 912.179 38.9276C911.933 39.1856 911.646 39.4085 911.317 39.5961C910.989 39.7721 910.631 39.9011 910.244 39.9832L912.513 43.8009C912.748 44.1996 912.988 44.4753 913.235 44.6277C913.493 44.7685 913.81 44.8389 914.185 44.8389H914.273V46H912.601C912.191 46 911.833 45.9707 911.528 45.912C911.223 45.8417 910.954 45.7361 910.719 45.5954C910.484 45.4546 910.279 45.2787 910.103 45.0676C909.927 44.8565 909.763 44.5984 909.611 44.2935L907.711 40.5637H906.391V44.8389H907.623V46H902.31V44.8389ZM906.391 39.3674H908.15C909.405 39.3674 910.033 38.8103 910.033 37.6961V36.6581C910.033 35.5439 909.405 34.9867 908.15 34.9867H906.391V39.3674ZM915.247 44.8389H916.478V34.8812H915.247V33.72H919.997L925.028 42.4638H925.134V34.8812H923.902V33.72H927.72V34.8812H926.506V46H923.938L917.956 35.7784H917.85V44.8389H919.082V46H915.247V44.8389ZM935.127 44.9092C935.491 44.9092 935.831 44.8506 936.147 44.7333C936.464 44.616 936.74 44.4342 936.974 44.1879C937.221 43.9416 937.414 43.6249 937.555 43.2379C937.696 42.8508 937.766 42.3876 937.766 41.848V37.872C937.766 37.3325 937.696 36.8692 937.555 36.4821C937.414 36.0951 937.221 35.7784 936.974 35.5321C936.74 35.2858 936.464 35.104 936.147 34.9867C935.831 34.8694 935.491 34.8108 935.127 34.8108C934.763 34.8108 934.423 34.8694 934.107 34.9867C933.79 35.104 933.508 35.2858 933.262 35.5321C933.028 35.7784 932.84 36.0951 932.699 36.4821C932.558 36.8692 932.488 37.3325 932.488 37.872V41.848C932.488 42.3876 932.558 42.8508 932.699 43.2379C932.84 43.6249 933.028 43.9416 933.262 44.1879C933.508 44.4342 933.79 44.616 934.107 44.7333C934.423 44.8506 934.763 44.9092 935.127 44.9092ZM935.127 46.2111C934.306 46.2111 933.544 46.0704 932.84 45.7889C932.136 45.5074 931.526 45.1028 931.01 44.575C930.494 44.0354 930.09 43.3728 929.796 42.5869C929.503 41.7894 929.357 40.8804 929.357 39.86C929.357 38.8396 929.503 37.9365 929.796 37.1507C930.09 36.3531 930.494 35.6905 931.01 35.1627C931.526 34.6231 932.136 34.2126 932.84 33.9312C933.544 33.6497 934.306 33.5089 935.127 33.5089C935.948 33.5089 936.71 33.6497 937.414 33.9312C938.118 34.2126 938.728 34.6231 939.244 35.1627C939.76 35.6905 940.165 36.3531 940.458 37.1507C940.751 37.9365 940.898 38.8396 940.898 39.86C940.898 40.8804 940.751 41.7894 940.458 42.5869C940.165 43.3728 939.76 44.0354 939.244 44.575C938.728 45.1028 938.118 45.5074 937.414 45.7889C936.71 46.0704 935.948 46.2111 935.127 46.2111ZM949.004 46.2111C948.054 46.2111 947.245 46.1173 946.576 45.9296C945.919 45.742 945.38 45.4488 944.957 45.05C944.547 44.6512 944.242 44.1469 944.043 43.537C943.855 42.9153 943.761 42.1706 943.761 41.3026V34.8812H942.53V33.72H947.843V34.8812H946.611V41.3378C946.611 41.936 946.652 42.4521 946.734 42.886C946.828 43.32 946.975 43.6836 947.174 43.9768C947.385 44.27 947.661 44.487 948.001 44.6277C948.353 44.7685 948.787 44.8389 949.303 44.8389C950.335 44.8389 951.056 44.5632 951.467 44.012C951.889 43.449 952.1 42.5752 952.1 41.3906V34.8812H950.869V33.72H954.704V34.8812H953.472V41.3554C953.472 42.9388 953.121 44.1469 952.417 44.9796C951.713 45.8006 950.576 46.2111 949.004 46.2111ZM958.479 44.8389H960.15V34.9867H957.863V36.9923H955.822V33.72H967.328V36.9923H965.287V34.9867H963V44.8389H964.671V46H958.479V44.8389Z" fill="white"/>
<path d="M982.685 44.9092C983.049 44.9092 983.389 44.8506 983.706 44.7333C984.022 44.616 984.298 44.4342 984.533 44.1879C984.779 43.9416 984.972 43.6249 985.113 43.2379C985.254 42.8508 985.324 42.3876 985.324 41.848V37.872C985.324 37.3325 985.254 36.8692 985.113 36.4821C984.972 36.0951 984.779 35.7784 984.533 35.5321C984.298 35.2858 984.022 35.104 983.706 34.9867C983.389 34.8694 983.049 34.8108 982.685 34.8108C982.322 34.8108 981.982 34.8694 981.665 34.9867C981.348 35.104 981.067 35.2858 980.821 35.5321C980.586 35.7784 980.398 36.0951 980.258 36.4821C980.117 36.8692 980.046 37.3325 980.046 37.872V41.848C980.046 42.3876 980.117 42.8508 980.258 43.2379C980.398 43.6249 980.586 43.9416 980.821 44.1879C981.067 44.4342 981.348 44.616 981.665 44.7333C981.982 44.8506 982.322 44.9092 982.685 44.9092ZM982.685 46.2111C981.864 46.2111 981.102 46.0704 980.398 45.7889C979.695 45.5074 979.085 45.1028 978.569 44.575C978.053 44.0354 977.648 43.3728 977.355 42.5869C977.061 41.7894 976.915 40.8804 976.915 39.86C976.915 38.8396 977.061 37.9365 977.355 37.1507C977.648 36.3531 978.053 35.6905 978.569 35.1627C979.085 34.6231 979.695 34.2126 980.398 33.9312C981.102 33.6497 981.864 33.5089 982.685 33.5089C983.506 33.5089 984.269 33.6497 984.972 33.9312C985.676 34.2126 986.286 34.6231 986.802 35.1627C987.318 35.6905 987.723 36.3531 988.016 37.1507C988.309 37.9365 988.456 38.8396 988.456 39.86C988.456 40.8804 988.309 41.7894 988.016 42.5869C987.723 43.3728 987.318 44.0354 986.802 44.575C986.286 45.1028 985.676 45.5074 984.972 45.7889C984.269 46.0704 983.506 46.2111 982.685 46.2111ZM990.047 34.8812H989.167V33.72H994.339V34.8812H992.932L994.533 40.0887L995.571 43.8536H995.676L996.785 40.0887L998.439 34.8812H997.031V33.72H1000.81V34.8812H999.934L996.204 46H993.776L990.047 34.8812ZM1001.82 44.8389H1003.05V34.8812H1001.82V33.72H1011.62V36.9923H1009.58V34.9867H1005.9V38.9628H1008.23V37.9072H1009.53V41.2851H1008.23V40.2295H1005.9V44.7333H1009.72V42.3758H1011.76V46H1001.82V44.8389ZM1013.4 44.8389H1014.63V34.8812H1013.4V33.72H1020.32C1020.86 33.72 1021.35 33.7787 1021.81 33.896C1022.27 34.0133 1022.66 34.2009 1022.99 34.4589C1023.33 34.7052 1023.59 35.0278 1023.78 35.4266C1023.97 35.8136 1024.06 36.2828 1024.06 36.834C1024.06 37.2562 1023.99 37.6433 1023.85 37.9952C1023.71 38.347 1023.52 38.6578 1023.27 38.9276C1023.03 39.1856 1022.74 39.4085 1022.41 39.5961C1022.08 39.7721 1021.72 39.9011 1021.34 39.9832L1023.61 43.8009C1023.84 44.1996 1024.08 44.4753 1024.33 44.6277C1024.59 44.7685 1024.9 44.8389 1025.28 44.8389H1025.37V46H1023.69C1023.28 46 1022.93 45.9707 1022.62 45.912C1022.32 45.8417 1022.05 45.7361 1021.81 45.5954C1021.58 45.4546 1021.37 45.2787 1021.2 45.0676C1021.02 44.8565 1020.86 44.5984 1020.7 44.2935L1018.8 40.5637H1017.48V44.8389H1018.72V46H1013.4V44.8389ZM1017.48 39.3674H1019.24C1020.5 39.3674 1021.13 38.8103 1021.13 37.6961V36.6581C1021.13 35.5439 1020.5 34.9867 1019.24 34.9867H1017.48V39.3674ZM1029.95 44.8389H1030.83L1034.65 33.72H1037.08L1040.9 44.8389H1041.78V46H1036.62V44.8389H1038.03L1037.18 42.2527H1033.17L1032.33 44.8389H1033.74V46H1029.95V44.8389ZM1033.52 41.0388H1036.87L1035.21 35.8664H1035.14L1033.52 41.0388ZM1042.73 44.8389H1043.96V34.8812H1042.73V33.72H1052.53V36.9923H1050.49V34.9867H1046.81V38.9628H1049.13V37.9072H1050.44V41.2851H1049.13V40.2295H1046.81V44.7333H1050.63V42.3758H1052.67V46H1042.73V44.8389ZM1054.31 44.8389H1055.54V34.8812H1054.31V33.72H1061.22C1061.76 33.72 1062.26 33.7787 1062.72 33.896C1063.18 34.0133 1063.57 34.2009 1063.9 34.4589C1064.24 34.7052 1064.5 35.0278 1064.69 35.4266C1064.88 35.8136 1064.97 36.2828 1064.97 36.834C1064.97 37.2562 1064.9 37.6433 1064.76 37.9952C1064.62 38.347 1064.43 38.6578 1064.18 38.9276C1063.93 39.1856 1063.65 39.4085 1063.32 39.5961C1062.99 39.7721 1062.63 39.9011 1062.24 39.9832L1064.51 43.8009C1064.75 44.1996 1064.99 44.4753 1065.23 44.6277C1065.49 44.7685 1065.81 44.8389 1066.18 44.8389H1066.27V46H1064.6C1064.19 46 1063.83 45.9707 1063.53 45.912C1063.22 45.8417 1062.95 45.7361 1062.72 45.5954C1062.48 45.4546 1062.28 45.2787 1062.1 45.0676C1061.93 44.8565 1061.76 44.5984 1061.61 44.2935L1059.71 40.5637H1058.39V44.8389H1059.62V46H1054.31V44.8389ZM1058.39 39.3674H1060.15C1061.41 39.3674 1062.03 38.8103 1062.03 37.6961V36.6581C1062.03 35.5439 1061.41 34.9867 1060.15 34.9867H1058.39V39.3674ZM1067.25 44.8389H1068.48V34.8812H1067.25V33.72H1072L1077.03 42.4638H1077.13V34.8812H1075.9V33.72H1079.72V34.8812H1078.51V46H1075.94L1069.96 35.7784H1069.85V44.8389H1071.08V46H1067.25V44.8389ZM1087.13 44.9092C1087.49 44.9092 1087.83 44.8506 1088.15 44.7333C1088.46 44.616 1088.74 44.4342 1088.97 44.1879C1089.22 43.9416 1089.41 43.6249 1089.55 43.2379C1089.7 42.8508 1089.77 42.3876 1089.77 41.848V37.872C1089.77 37.3325 1089.7 36.8692 1089.55 36.4821C1089.41 36.0951 1089.22 35.7784 1088.97 35.5321C1088.74 35.2858 1088.46 35.104 1088.15 34.9867C1087.83 34.8694 1087.49 34.8108 1087.13 34.8108C1086.76 34.8108 1086.42 34.8694 1086.11 34.9867C1085.79 35.104 1085.51 35.2858 1085.26 35.5321C1085.03 35.7784 1084.84 36.0951 1084.7 36.4821C1084.56 36.8692 1084.49 37.3325 1084.49 37.872V41.848C1084.49 42.3876 1084.56 42.8508 1084.7 43.2379C1084.84 43.6249 1085.03 43.9416 1085.26 44.1879C1085.51 44.4342 1085.79 44.616 1086.11 44.7333C1086.42 44.8506 1086.76 44.9092 1087.13 44.9092ZM1087.13 46.2111C1086.31 46.2111 1085.54 46.0704 1084.84 45.7889C1084.14 45.5074 1083.53 45.1028 1083.01 44.575C1082.49 44.0354 1082.09 43.3728 1081.8 42.5869C1081.5 41.7894 1081.36 40.8804 1081.36 39.86C1081.36 38.8396 1081.5 37.9365 1081.8 37.1507C1082.09 36.3531 1082.49 35.6905 1083.01 35.1627C1083.53 34.6231 1084.14 34.2126 1084.84 33.9312C1085.54 33.6497 1086.31 33.5089 1087.13 33.5089C1087.95 33.5089 1088.71 33.6497 1089.41 33.9312C1090.12 34.2126 1090.73 34.6231 1091.24 35.1627C1091.76 35.6905 1092.16 36.3531 1092.46 37.1507C1092.75 37.9365 1092.9 38.8396 1092.9 39.86C1092.9 40.8804 1092.75 41.7894 1092.46 42.5869C1092.16 43.3728 1091.76 44.0354 1091.24 44.575C1090.73 45.1028 1090.12 45.5074 1089.41 45.7889C1088.71 46.0704 1087.95 46.2111 1087.13 46.2111ZM1101 46.2111C1100.05 46.2111 1099.24 46.1173 1098.58 45.9296C1097.92 45.742 1097.38 45.4488 1096.96 45.05C1096.55 44.6512 1096.24 44.1469 1096.04 43.537C1095.85 42.9153 1095.76 42.1706 1095.76 41.3026V34.8812H1094.53V33.72H1099.84V34.8812H1098.61V41.3378C1098.61 41.936 1098.65 42.4521 1098.73 42.886C1098.83 43.32 1098.97 43.6836 1099.17 43.9768C1099.39 44.27 1099.66 44.487 1100 44.6277C1100.35 44.7685 1100.79 44.8389 1101.3 44.8389C1102.34 44.8389 1103.06 44.5632 1103.47 44.012C1103.89 43.449 1104.1 42.5752 1104.1 41.3906V34.8812H1102.87V33.72H1106.7V34.8812H1105.47V41.3554C1105.47 42.9388 1105.12 44.1469 1104.42 44.9796C1103.71 45.8006 1102.58 46.2111 1101 46.2111ZM1110.48 44.8389H1112.15V34.9867H1109.86V36.9923H1107.82V33.72H1119.33V36.9923H1117.29V34.9867H1115V44.8389H1116.67V46H1110.48V44.8389Z" fill="white"/>
<path d="M34.5705 135.35C34.7372 135.027 34.841 134.698 34.8819 134.363C34.9228 134.028 34.8876 133.699 34.7762 133.378C34.6702 133.046 34.4775 132.729 34.198 132.426C33.9185 132.124 33.539 131.849 33.0595 131.602L29.5259 129.779C29.0464 129.532 28.6024 129.382 28.1938 129.33C27.7853 129.277 27.4152 129.304 27.0834 129.41C26.757 129.506 26.469 129.667 26.2196 129.895C25.9702 130.123 25.7622 130.398 25.5955 130.721C25.4289 131.044 25.3251 131.374 25.2841 131.709C25.2432 132.044 25.2758 132.378 25.3818 132.709C25.4931 133.031 25.6886 133.343 25.968 133.645C26.2475 133.948 26.627 134.223 27.1065 134.47L30.6402 136.293C31.1197 136.54 31.5637 136.69 31.9722 136.742C32.3807 136.794 32.7482 136.773 33.0746 136.677C33.4064 136.571 33.697 136.404 33.9464 136.177C34.1958 135.949 34.4038 135.674 34.5705 135.35ZM35.7276 135.947C35.3512 136.677 34.8767 137.29 34.3039 137.786C33.7311 138.283 33.0919 138.639 32.3863 138.856C31.6703 139.067 30.8958 139.123 30.063 139.023C29.2198 138.919 28.3447 138.632 27.4378 138.164C26.531 137.697 25.7955 137.152 25.2315 136.532C24.6571 135.905 24.2537 135.242 24.0211 134.541C23.7782 133.835 23.6929 133.105 23.7654 132.351C23.8378 131.596 24.0621 130.854 24.4385 130.125C24.8148 129.395 25.2894 128.782 25.8621 128.285C26.4349 127.789 27.0793 127.435 27.7954 127.224C28.501 127.007 29.2754 126.951 30.1187 127.056C30.9515 127.156 31.8213 127.44 32.7282 127.907C33.6351 128.375 34.3757 128.922 34.9501 129.548C35.5141 130.169 35.9176 130.832 36.1605 131.538C36.393 132.239 36.4731 132.966 36.4007 133.721C36.3283 134.475 36.1039 135.217 35.7276 135.947Z" fill="white"/>
<path d="M32.7342 118.101L32.2471 118.834L31.2802 118.191L34.1442 113.884L35.1111 114.527L34.3318 115.699L39.5546 117.249L43.2645 118.469L43.3229 118.381L40.8015 115.374L37.3808 111.113L36.6015 112.285L35.6346 111.642L37.729 108.492L38.6959 109.135L38.2088 109.868L45.4025 119.13L44.0582 121.152L32.7342 118.101Z" fill="white"/>
<path d="M51.0039 109.258L51.7892 108.309L44.1185 101.96L43.3332 102.908L42.4388 102.168L48.6873 94.6193L51.208 96.7059L49.9067 98.278L48.3617 96.9991L46.0172 99.8316L49.08 102.367L50.5608 100.578L49.7477 99.9049L50.5778 98.902L53.1799 101.056L52.3497 102.059L51.5366 101.386L50.0558 103.175L53.5252 106.046L55.9596 103.106L54.1435 101.602L55.4448 100.03L58.2366 102.341L51.8984 109.998L51.0039 109.258Z" fill="white"/>
<path d="M62.0311 96.4179L62.9112 95.5564L55.9456 88.4405L55.0655 89.302L54.2533 88.4722L59.1942 83.6357C59.5798 83.2583 59.977 82.9515 60.3859 82.7153C60.7948 82.4792 61.2069 82.3384 61.6221 82.2931C62.0374 82.2312 62.4516 82.2771 62.8647 82.4308C63.2695 82.5761 63.6648 82.8457 64.0504 83.2396C64.3457 83.5414 64.5662 83.8672 64.7118 84.2171C64.8573 84.567 64.9364 84.9245 64.9491 85.2895C64.9536 85.6462 64.9041 86.0065 64.8007 86.3703C64.6891 86.7258 64.5237 87.0682 64.3046 87.3976L68.5969 88.5382C69.0435 88.6591 69.4082 88.6879 69.6908 88.6246C69.9737 88.5446 70.2492 88.3734 70.5174 88.1109L70.5803 88.0493L71.3925 88.8791L70.1981 90.0482C69.9048 90.3354 69.6286 90.5647 69.3697 90.7361C69.1026 90.8991 68.8359 91.0124 68.5699 91.0759C68.3038 91.1394 68.034 91.1573 67.7606 91.1295C67.4872 91.1017 67.1894 91.0321 66.8671 90.9209L62.9003 89.5847L61.9574 90.5077L64.9479 93.5627L65.828 92.7013L66.6402 93.531L62.8434 97.2476L62.0311 96.4179ZM61.1205 89.6528L62.3777 88.4221C63.2746 87.5442 63.3333 86.7071 62.5538 85.9109L61.8277 85.1691C61.0483 84.3729 60.2102 84.4137 59.3134 85.2916L58.0562 86.5223L61.1205 89.6528Z" fill="white"/>
<path d="M82.4815 78.1989L83.2039 77.6969L79.9939 66.3877L81.9876 65.0022L91.4677 71.9543L92.1901 71.4523L92.8527 72.4058L88.6196 75.3474L87.957 74.3939L89.1128 73.5907L86.9435 71.9489L83.6496 74.2379L84.4319 76.8436L85.5877 76.0404L86.2503 76.9939L83.1442 79.1524L82.4815 78.1989ZM83.2458 73.0403L85.9907 71.1327L81.681 67.829L81.6233 67.8691L83.2458 73.0403Z" fill="white"/>
<path d="M97.7922 67.9969L98.8714 67.4036L94.0741 58.6777L92.995 59.271L92.4356 58.2535L101.023 53.5324L102.599 56.4L100.811 57.3832L99.8446 55.6256L96.6225 57.3971L98.538 60.8813L100.573 59.7625L100.064 58.8375L101.205 58.2103L102.833 61.1703L101.692 61.7975L101.183 60.8725L99.1483 61.9913L101.318 65.938L104.664 64.0987L103.528 62.0329L105.316 61.0497L107.062 64.2255L98.3516 69.0144L97.7922 67.9969Z" fill="white"/>
<path d="M112.769 60.1133L113.905 59.636L110.045 50.4567L108.91 50.9341L108.46 49.8637L114.833 47.1837C115.331 46.9746 115.813 46.8355 116.28 46.7663C116.747 46.6971 117.182 46.7178 117.585 46.8284C117.994 46.9236 118.362 47.1186 118.69 47.4135C119.013 47.6975 119.281 48.0936 119.495 48.6018C119.658 48.991 119.743 49.3751 119.75 49.754C119.757 50.1329 119.699 50.4944 119.576 50.8386C119.449 51.1719 119.271 51.4887 119.041 51.789C118.806 52.0784 118.527 52.336 118.202 52.5617L121.773 55.2013C122.144 55.478 122.473 55.6389 122.759 55.6839C123.051 55.7137 123.37 55.6558 123.716 55.5103L123.797 55.4762L124.248 56.5466L122.707 57.1944C122.328 57.3535 121.987 57.4652 121.684 57.5293C121.375 57.5826 121.086 57.5899 120.815 57.5511C120.544 57.5122 120.287 57.4296 120.043 57.3032C119.799 57.1768 119.547 57.0026 119.288 56.7806L116.091 54.0789L114.875 54.5903L116.532 58.5312L117.667 58.0539L118.117 59.1243L113.22 61.1837L112.769 60.1133ZM114.411 53.4875L116.033 52.8056C117.19 52.3192 117.552 51.5624 117.12 50.5353L116.718 49.5784C116.286 48.5513 115.492 48.281 114.335 48.7674L112.713 49.4493L114.411 53.4875Z" fill="white"/>
<path d="M129.413 53.4669L130.594 53.1178L127.772 43.5686L126.591 43.9177L126.261 42.8042L130.817 41.4576L138.121 48.4163L138.222 48.3864L136.072 41.1148L134.891 41.4639L134.562 40.3504L138.223 39.2682L138.552 40.3817L137.388 40.7258L140.54 51.3885L138.077 52.1167L129.443 44.0101L129.342 44.04L131.91 52.7287L133.091 52.3796L133.421 53.4931L129.743 54.5804L129.413 53.4669Z" fill="white"/>
<path d="M153.542 47.4892C153.9 47.4263 154.225 47.3097 154.517 47.1394C154.808 46.9691 155.048 46.7424 155.237 46.4592C155.437 46.174 155.573 45.8287 155.644 45.4231C155.716 45.0176 155.705 44.5491 155.612 44.0177L154.924 40.1016C154.831 39.5702 154.682 39.126 154.476 38.7692C154.27 38.4123 154.025 38.1339 153.74 37.9339C153.466 37.7318 153.163 37.6005 152.831 37.5397C152.499 37.4789 152.154 37.48 151.796 37.5429C151.438 37.6058 151.113 37.7224 150.821 37.8926C150.53 38.0629 150.284 38.2907 150.084 38.5759C149.895 38.859 149.765 39.2034 149.694 39.6089C149.622 40.0145 149.633 40.483 149.726 41.0144L150.414 44.9305C150.507 45.4619 150.656 45.906 150.862 46.2629C151.067 46.6197 151.307 46.8992 151.581 47.1012C151.866 47.3012 152.175 47.4316 152.507 47.4923C152.839 47.5531 153.184 47.552 153.542 47.4892ZM153.767 48.7714C152.959 48.9134 152.183 48.9066 151.442 48.7511C150.7 48.5955 150.029 48.3025 149.43 47.8719C148.828 47.4297 148.315 46.847 147.89 46.1238C147.463 45.3889 147.162 44.519 146.985 43.514C146.809 42.509 146.797 41.5941 146.95 40.7694C147.101 39.9332 147.385 39.2105 147.802 38.6014C148.217 37.9808 148.747 37.471 149.391 37.072C150.035 36.6731 150.762 36.4026 151.571 36.2606C152.379 36.1186 153.154 36.1254 153.896 36.281C154.638 36.4365 155.31 36.7353 155.911 37.1775C156.511 37.6081 157.024 38.1908 157.451 38.9256C157.875 39.6489 158.176 40.513 158.353 41.518C158.529 42.5231 158.542 43.4437 158.391 44.2799C158.238 45.1046 157.954 45.8273 157.539 46.4479C157.122 47.057 156.591 47.5611 155.947 47.96C155.303 48.359 154.576 48.6294 153.767 48.7714Z" fill="white"/>
<path d="M172.894 46.5162C171.946 46.5733 171.133 46.5284 170.454 46.3813C169.787 46.2335 169.231 45.9733 168.785 45.6006C168.352 45.2273 168.017 44.7422 167.781 44.1454C167.556 43.5362 167.418 42.7984 167.366 41.9321L166.979 35.5222L165.75 35.5964L165.68 34.4373L170.984 34.1176L171.054 35.2766L169.824 35.3507L170.213 41.7957C170.249 42.3928 170.321 42.9054 170.429 43.3337C170.549 43.7612 170.717 44.1153 170.934 44.396C171.162 44.676 171.45 44.876 171.798 44.996C172.158 45.1153 172.595 45.1594 173.11 45.1284C174.141 45.0663 174.844 44.7478 175.221 44.1728C175.608 43.5854 175.766 42.7005 175.695 41.5181L175.303 35.0204L174.074 35.0945L174.004 33.9355L177.833 33.7047L177.902 34.8637L176.673 34.9378L177.063 41.4004C177.158 42.9809 176.879 44.2079 176.227 45.0815C175.574 45.9434 174.463 46.4216 172.894 46.5162Z" fill="white"/>
<path d="M187.679 44.8991L189.348 44.9833L189.844 35.1437L187.56 35.0285L187.459 37.0315L185.421 36.9287L185.586 33.6606L197.077 34.2402L196.912 37.5084L194.874 37.4056L194.975 35.4025L192.691 35.2873L192.194 45.1269L193.864 45.2111L193.805 46.3708L187.62 46.0588L187.679 44.8991Z" fill="white"/>
</svg>
