<svg width="56" height="56" viewBox="0 0 56 56" fill="none" xmlns="http://www.w3.org/2000/svg">
<g opacity="0.9">
<path d="M28.3459 7.7753C28.3459 7.39601 28.0336 7.08366 27.6543 7.08366C22.0543 7.08366 16.789 9.27012 12.84 13.2303C12.7061 13.3641 12.6392 13.5315 12.6392 13.7211C12.6392 13.8996 12.7061 14.0781 12.84 14.2008C12.9738 14.3347 13.1412 14.4016 13.3308 14.4016C13.5204 14.4016 13.6878 14.3347 13.8216 14.2008C17.5141 10.4972 22.4224 8.45578 27.6543 8.45578C28.0336 8.45578 28.3459 8.15458 28.3459 7.7753Z" fill="white"/>
<path d="M31.9156 50.6343C32.0941 50.6343 32.2726 50.5673 32.4064 50.4335L34.3028 48.5371L36.1993 50.4335C36.3331 50.5673 36.5004 50.6343 36.6901 50.6343C36.8686 50.6343 37.0471 50.5673 37.1809 50.4335L44.3204 43.294C44.4542 43.1602 44.5212 42.9928 44.5212 42.8032C44.5212 42.6247 44.4542 42.4462 44.3204 42.3124L42.424 40.4159L49.0726 33.7673C49.2064 33.6335 49.2734 33.4661 49.2734 33.2765V31.5363L49.2845 31.4805C49.2957 31.4359 49.2957 31.3801 49.2957 31.3355V2.36494C49.2957 1.98566 48.9945 1.67331 48.6152 1.66216H48.5706C48.2024 1.67331 47.9012 1.97451 47.9012 2.35379V33.0088L41.4534 39.4566L39.557 37.5602C39.4232 37.4263 39.2558 37.3594 39.0662 37.3594C38.8877 37.3594 38.7092 37.4263 38.5753 37.5602L31.4359 44.6996C31.302 44.8335 31.2351 45.0008 31.2351 45.1904C31.2351 45.3689 31.302 45.5474 31.4359 45.6813L33.3323 47.5777L31.4359 49.4741C31.302 49.608 31.2351 49.7753 31.2351 49.9649C31.2351 50.1434 31.302 50.3219 31.4359 50.4558C31.5586 50.5673 31.7259 50.6343 31.9156 50.6343ZM32.8861 45.1904L39.055 39.0215L42.8367 42.8032L36.6678 48.9721L32.8861 45.1904Z" fill="white"/>
<path d="M47.8008 8.1992C42.5131 2.91155 35.4741 0 28 0C20.5259 0 13.4869 2.91155 8.1992 8.1992C2.91155 13.4869 0 20.5259 0 28C0 35.4741 2.91155 42.5131 8.1992 47.8008C13.4869 53.0884 20.5259 56 28 56C35.4741 56 42.5131 53.0884 47.8008 47.8008C53.0884 42.5131 56 35.4741 56 28C56 20.5259 53.0884 13.4869 47.8008 8.1992ZM46.8526 46.8526C44.3984 49.3068 41.5538 51.2255 38.3745 52.5641C35.0837 53.9586 31.592 54.6614 28 54.6614C24.3968 54.6614 20.9052 53.9586 17.6255 52.5641C14.4462 51.2255 11.6016 49.2956 9.14741 46.8526C6.69323 44.3984 4.7745 41.5538 3.43586 38.3745C2.04143 35.0948 1.33865 31.6032 1.33865 28C1.33865 24.3968 2.04143 20.9052 3.43586 17.6255C4.7745 14.4462 6.70438 11.6016 9.14741 9.14741C11.6016 6.69323 14.4462 4.7745 17.6255 3.43586C20.9052 2.04143 24.3968 1.33865 28 1.33865C31.6032 1.33865 35.0948 2.04143 38.3745 3.43586C41.5538 4.7745 44.3984 6.70438 46.8526 9.14741C49.3068 11.6016 51.2255 14.4462 52.5641 17.6255C53.9586 20.9163 54.6614 24.408 54.6614 28C54.6614 31.6032 53.9586 35.0948 52.5641 38.3745C51.2255 41.5538 49.3068 44.3984 46.8526 46.8526Z" fill="white"/>
<path d="M29.004 16.4319C28.9259 16.3984 28.8478 16.3761 28.7586 16.3761C28.6359 16.3761 28.502 16.4207 28.4016 16.4988L20.7044 22.6566L20.6486 22.7012H20.5706H16.8893C16.1419 22.7012 15.5283 23.3147 15.5283 24.0622V30.3984C15.5283 31.1458 16.1419 31.7594 16.8893 31.7594H20.5706H20.6486L20.7044 31.804L28.4016 37.9618C28.502 38.0398 28.6247 38.0845 28.7586 38.0845C28.8478 38.0845 28.9259 38.0622 29.004 38.0287C29.1937 37.9394 29.3275 37.7275 29.3275 37.5155V16.945C29.3275 16.7219 29.2048 16.5211 29.004 16.4319ZM20.2805 24.0733V30.4096V30.6327H20.0574H16.8893H16.6662V30.4096V24.0733V23.8502H16.8893H20.0574H20.2805V24.0733ZM28.1897 18.596V35.8757V36.3442L27.8327 36.0542L21.4964 30.9896L21.4072 30.9227V30.8112V23.6606V23.549L21.4964 23.4821L27.8327 18.4175L28.1897 18.1275V18.596Z" fill="white"/>
<path d="M32.4399 32.2613C32.4399 32.4175 32.4957 32.5514 32.6073 32.6629C32.7188 32.7745 32.8527 32.8303 33.0089 32.8303C33.165 32.8303 33.2989 32.7745 33.4105 32.6629C34.8718 31.2239 35.6638 29.294 35.6638 27.2303C35.6638 25.1665 34.8607 23.2255 33.4105 21.7864C33.2989 21.6749 33.165 21.6191 33.0089 21.6191C32.8527 21.6191 32.7077 21.6749 32.6073 21.7864C32.3842 22.0095 32.3842 22.3665 32.6073 22.5896C33.8455 23.8167 34.526 25.4566 34.526 27.2191C34.526 28.9817 33.8455 30.6215 32.6073 31.8486C32.4957 31.9713 32.4399 32.1163 32.4399 32.2613Z" fill="white"/>
<path d="M35.2398 35.0725C35.396 35.0725 35.5299 35.0167 35.6414 34.9052C37.7052 32.8638 38.8319 30.1418 38.8319 27.2303C38.8319 24.3299 37.694 21.5968 35.6414 19.5554C35.5299 19.4438 35.396 19.3881 35.2398 19.3881C35.0836 19.3881 34.9386 19.4438 34.8382 19.5554C34.7267 19.6669 34.6709 19.8008 34.6709 19.957C34.6709 20.1132 34.7267 20.247 34.8382 20.3586C36.6789 22.1881 37.694 24.6199 37.694 27.2191C37.694 29.8183 36.6789 32.2502 34.8382 34.0797C34.6151 34.3028 34.6151 34.6598 34.8382 34.8829C34.9386 35.0056 35.0836 35.0725 35.2398 35.0725Z" fill="white"/>
</g>
</svg>
