<svg width="894" height="227" viewBox="0 0 894 227" fill="none" xmlns="http://www.w3.org/2000/svg">
<path d="M23.7423 161.659L33.8349 154.494C35.999 152.958 38.1251 151.951 40.2132 151.475C42.3406 150.971 44.3742 150.918 46.3139 151.316C48.2536 151.714 50.0855 152.544 51.8095 153.806C53.5056 155.028 55.0241 156.583 56.3648 158.472C59.7726 163.272 62.2867 167.731 63.9071 171.847C65.5275 175.964 66.3354 179.769 66.3308 183.264C66.3377 186.691 65.5714 189.78 64.032 192.529C62.532 195.251 60.3458 197.632 57.4735 199.671L46.0824 207.757L23.7423 161.659ZM54.8699 195.128C61.5196 190.407 62.522 183.275 57.8771 173.731L54.7991 167.395C54.4144 166.603 53.9401 165.726 53.3764 164.765C52.7847 163.765 52.1955 162.852 51.6089 162.026C49.486 159.035 47.1323 157.304 44.5477 156.83C41.9352 156.318 39.1731 157.095 36.2614 159.162L30.8905 162.975L48.6137 199.569L54.8699 195.128Z" fill="white"/>
<path d="M85.3215 180.401L66.3854 132.803L92.881 116.75L94.8386 121.658L73.4192 134.635L79.7943 150.745L100.533 138.18L102.49 143.087L81.7519 155.652L88.4402 172.418L109.983 159.366L111.941 164.274L85.3215 180.401Z" fill="white"/>
<path d="M176.355 82.248L186.976 126.947L181.508 129.255L170.887 84.5563L155.284 91.1434L154.057 86.0045L190.733 70.5219L191.959 75.6608L176.355 82.248Z" fill="white"/>
<path d="M214.997 115.56L206.797 64.994L236.137 55.0485L236.987 60.2629L213.269 68.3029L216.011 85.4101L238.975 77.6257L239.825 82.8401L216.861 90.6245L219.767 108.44L243.622 100.354L244.473 105.568L214.997 115.56Z" fill="white"/>
<path d="M262.348 55.0279L261.858 55.1553L265.739 99.1668L260.415 100.55L255.907 49.5221L264.244 47.3561L284.518 87.1084L285.009 86.981L281.127 42.9695L286.451 41.5862L290.959 92.6142L282.623 94.7802L262.348 55.0279Z" fill="white"/>
<path d="M325.095 39.4062L325.802 85.3442L319.965 86.4159L319.258 40.4779L302.599 43.5364L302.512 38.2538L341.667 31.0652L341.754 36.3478L325.095 39.4062Z" fill="white"/>
<path d="M371.042 79.4709C366.102 80.0113 362.32 78.9444 359.698 76.2701C357.123 73.5907 355.534 69.4928 354.931 63.9765C354.7 61.8659 354.565 59.5263 354.527 56.9578C354.537 54.384 354.712 51.7679 355.052 49.1094C355.44 46.4457 356.055 43.8543 356.896 41.3353C357.732 38.7682 358.863 36.4602 360.289 34.411C361.758 32.3087 363.559 30.5826 365.693 29.2327C367.822 27.8349 370.397 26.9708 373.419 26.6402C378.36 26.0998 382.117 27.1694 384.692 29.8488C387.314 32.523 388.927 36.6183 389.531 42.1346C389.761 44.2452 389.872 46.5874 389.862 49.1611C389.9 51.7297 389.725 54.3458 389.337 57.0095C388.997 59.668 388.409 62.2807 387.573 64.8478C386.732 67.3668 385.577 69.6775 384.108 71.7799C382.682 73.829 380.881 75.5551 378.704 76.9582C376.57 78.308 374.016 79.1456 371.042 79.4709ZM370.907 74.2431C374.793 73.8181 377.748 71.9901 379.773 68.759C381.798 65.5279 382.959 61.2749 383.256 55.9999L383.726 47.6479C383.797 46.5237 383.802 45.4552 383.74 44.4427C383.725 43.4249 383.674 42.5082 383.584 41.6928C383.207 38.2391 382.22 35.6529 380.624 33.9343C379.077 32.2105 376.72 31.5217 373.554 31.868C369.668 32.2929 366.713 34.121 364.688 37.3521C362.663 40.5831 361.502 44.8362 361.205 50.1111L360.735 58.4632C360.664 59.5874 360.636 60.6585 360.65 61.6763C360.712 62.6889 360.788 63.6029 360.877 64.4183C361.255 67.872 362.217 70.4608 363.765 72.1846C365.361 73.9032 367.742 74.5894 370.907 74.2431Z" fill="white"/>
<path d="M419.229 75.7334C414.262 75.9138 410.568 74.5753 408.146 71.7179C405.773 68.8586 404.486 64.6563 404.284 59.1107C404.207 56.9889 404.243 54.6458 404.391 52.0813C404.587 49.515 404.952 46.9184 405.484 44.2917C406.065 41.6632 406.866 39.1232 407.887 36.6718C408.907 34.1722 410.202 31.9522 411.774 30.012C413.391 28.0218 415.313 26.431 417.539 25.2395C419.764 23.9999 422.395 23.3248 425.433 23.2145C430.4 23.034 434.07 24.3734 436.443 27.2326C438.865 30.0901 440.176 34.2916 440.378 39.8371C440.455 41.9589 440.395 44.3029 440.199 46.8692C440.05 49.4337 439.686 52.0303 439.105 54.6588C438.573 57.2856 437.797 59.8488 436.777 62.3484C435.756 64.7998 434.436 67.0206 432.819 69.0108C431.247 70.951 429.325 72.5418 427.053 73.7833C424.827 74.9747 422.219 75.6248 419.229 75.7334ZM419.474 70.5096C423.38 70.3677 426.46 68.7589 428.714 65.6833C430.968 62.6077 432.435 58.4501 433.114 53.2106L434.188 44.9147C434.341 43.7986 434.423 42.7333 434.434 41.7189C434.494 40.7027 434.509 39.7848 434.479 38.965C434.353 35.493 433.557 32.8421 432.09 31.0122C430.671 29.1806 428.371 28.3226 425.188 28.4382C421.282 28.5801 418.202 30.1889 415.948 33.2645C413.693 36.3401 412.227 40.4977 411.548 45.7372L410.473 54.0331C410.321 55.1493 410.215 56.2154 410.155 57.2316C410.144 58.246 410.153 59.1631 410.183 59.9829C410.309 63.4549 411.081 66.1067 412.5 67.9383C413.966 69.7681 416.291 70.6252 419.474 70.5096Z" fill="white"/>
<path d="M466.497 30.9926L465.99 30.9742L457.103 74.2534L451.606 74.0537L461.903 23.8726L470.51 24.1853L478.549 68.0794L479.055 68.0978L487.943 24.8186L493.44 25.0183L483.143 75.1995L474.535 74.8867L466.497 30.9926Z" fill="white"/>
<path d="M516.211 78.8263C511.846 78.3489 508.314 77.1373 505.614 75.1916C502.968 73.2032 501.043 70.8325 499.839 68.0796L504.686 65.0419C505.953 67.6562 507.576 69.6783 509.556 71.1083C511.535 72.5384 514.036 73.4187 517.058 73.7492C520.991 74.1794 524.211 73.5851 526.719 71.9662C529.231 70.2993 530.663 67.8589 531.014 64.6451C531.24 62.5824 530.821 60.862 529.759 59.4836C528.744 58.1106 526.81 56.9282 523.957 55.9366L518.695 54.1232C514.813 52.7764 512.071 50.9959 510.469 48.7819C508.866 46.5679 508.243 43.83 508.6 40.5682C508.852 38.2657 509.509 36.2503 510.572 34.522C511.688 32.7509 513.108 31.3044 514.833 30.1824C516.558 29.0604 518.56 28.2843 520.84 27.854C523.125 27.3759 525.611 27.2837 528.297 27.5775C530.456 27.8136 532.375 28.2419 534.054 28.8625C535.782 29.4883 537.275 30.2584 538.534 31.1728C539.794 32.0872 540.848 33.1005 541.697 34.2128C542.551 35.2771 543.251 36.4216 543.797 37.6463L539.134 40.34C537.973 38.0772 536.444 36.308 534.544 35.0324C532.698 33.714 530.336 32.8974 527.458 32.5826C523.813 32.1839 520.84 32.7325 518.541 34.2285C516.295 35.6818 515.011 37.8715 514.691 40.7975C514.44 43.1 514.922 44.9003 516.139 46.1984C517.405 47.5018 519.346 48.6122 521.964 49.5295L527.083 51.3272C531.151 52.743 533.912 54.5741 535.365 56.8203C536.866 59.0718 537.449 61.7325 537.113 64.8025C536.851 67.2009 536.157 69.3336 535.03 71.2006C533.952 73.0728 532.494 74.6366 530.658 75.892C528.875 77.1047 526.74 77.9876 524.252 78.5408C521.818 79.0512 519.137 79.1463 516.211 78.8263Z" fill="white"/>
<path d="M582.154 41.9954L566.497 85.1887L560.659 84.1169L576.316 40.9237L559.658 37.8653L561.453 32.8964L600.608 40.0849L598.813 45.0539L582.154 41.9954Z" fill="white"/>
<path d="M596.17 91.0507L617.071 44.2819L647.054 52.0723L644.903 56.8978L620.664 50.6L613.566 66.4049L637.035 72.5025L634.884 77.328L611.415 71.2305L604.065 87.7177L628.444 94.0519L626.293 98.8774L596.17 91.0507Z" fill="white"/>
<path d="M645.047 104.339L669.287 59.2104L674.84 61.0926L653.164 101.588L675.854 109.279L673.358 113.936L645.047 104.339Z" fill="white"/>
<path d="M690.707 120.419L718.158 77.1683L723.559 79.4485L699.002 118.264L721.074 127.582L718.247 132.045L690.707 120.419Z" fill="white"/>
<path d="M732.694 138.552L735.576 134.66L746.857 140.42L771.611 107.06L760.329 101.3L763.211 97.4075L791.059 111.627L788.178 115.519L776.897 109.759L752.143 143.119L763.424 148.879L760.543 152.772L732.694 138.552Z" fill="white"/>
<path d="M809.485 130.461L809.052 130.198L780.221 163.678L775.516 160.827L808.938 122.005L816.305 126.468L801.96 168.724L802.393 168.986L831.224 135.507L835.929 138.358L802.507 177.18L795.14 172.716L809.485 130.461Z" fill="white"/>
<path d="M843.553 196.211L843.258 196.001C842.064 196.515 840.86 196.962 839.644 197.341C838.467 197.749 837.261 197.988 836.028 198.059C834.822 198.09 833.581 197.92 832.307 197.548C831.072 197.204 829.785 196.557 828.448 195.607C824.946 193.121 823.17 189.996 823.119 186.232C823.137 182.457 824.891 178.11 828.382 173.192C829.5 171.618 830.855 169.917 832.448 168.09C834.109 166.25 835.941 164.503 837.944 162.848C839.976 161.154 842.128 159.664 844.402 158.379C846.704 157.054 849.088 156.113 851.554 155.556C854.021 154.999 856.5 154.924 858.992 155.332C861.551 155.729 864.07 156.807 866.549 158.567C868.437 159.907 869.855 161.328 870.802 162.829C871.748 164.329 872.333 165.839 872.557 167.359C872.847 168.867 872.837 170.339 872.527 171.776C872.217 173.213 871.775 174.586 871.201 175.895L865.828 174.211C866.246 173.205 866.557 172.183 866.762 171.145C867.006 170.135 867.062 169.139 866.93 168.158C866.798 167.176 866.445 166.215 865.87 165.275C865.295 164.334 864.397 163.431 863.178 162.565C861.486 161.364 859.733 160.623 857.921 160.342C856.147 160.089 854.336 160.223 852.486 160.745C850.704 161.255 848.864 162.138 846.966 163.394C845.135 164.639 843.289 166.198 841.426 168.072L836.46 173.067C835.66 173.861 834.919 174.696 834.237 175.573C833.583 176.411 833.075 177.085 832.712 177.597C830.561 180.627 829.408 183.418 829.253 185.97C829.097 188.523 830.318 190.721 832.915 192.565C834.332 193.571 835.772 194.209 837.237 194.479C838.769 194.738 840.256 194.728 841.697 194.449C843.205 194.159 844.633 193.605 845.983 192.788C847.372 191.998 848.659 191.019 849.845 189.848L852.639 187.038L844.022 180.921L847.436 177.487L860.539 186.788L842.761 204.703L838.276 201.519L843.553 196.211Z" fill="white"/>
</svg>
